<?xml version="1.0" encoding="iso-8859-1"?>
<!-- Generator: Adobe Illustrator 19.0.0, SVG Export Plug-In . SVG Version: 6.00 Build 0)  -->
<svg version="1.1" id="Layer_1" xmlns="http://www.w3.org/2000/svg" xmlns:xlink="http://www.w3.org/1999/xlink" x="0px" y="0px"
	 viewBox="0 0 512 512" style="enable-background:new 0 0 512 512;" xml:space="preserve">
<rect x="180.966" y="476.69" style="fill:#D8D8D8;" width="132.414" height="17.655"/>
<g>
	<path style="fill:#C59981;" d="M269.793,66.759c0-7.603-6.189-13.793-13.793-13.793c-7.603,0-13.793,6.19-13.793,13.793
		c0,12.543,7.138,58.552,13.793,75.534C262.655,125.31,269.793,79.302,269.793,66.759z"/>
	<path style="fill:#C59981;" d="M304.026,202.388c15.052,10.302,58.276,27.612,70.491,30.431c3.586,0.828,7.302,0.207,10.423-1.733
		c3.129-1.957,5.302-5.009,6.129-8.595c1.715-7.414-2.922-14.845-10.336-16.552C368.509,203.112,322.078,199.724,304.026,202.388z"
		/>
	<path style="fill:#C59981;" d="M367.121,114.991c0.388-3.673-0.681-7.267-3-10.121c-2.724-3.362-6.716-5.112-10.741-5.112
		c-3.052,0-6.121,1.009-8.672,3.069c-10.026,8.121-41.25,42.457-50.095,58.328c17.362-5.362,57.44-28.767,67.474-36.888
		C364.948,121.948,366.733,118.655,367.121,114.991z"/>
	<path style="fill:#C59981;" d="M277.129,235.948c1.345,18.164,15.104,62.396,20.759,73.983c3.336,6.836,11.621,9.69,18.448,6.345
		c6.836-3.328,9.681-11.603,6.345-18.44C317.19,286.552,290.543,248.25,277.129,235.948z"/>
	<path style="fill:#C59981;" d="M149.914,124.267c10.035,8.121,50.121,31.526,67.483,36.888
		c-8.853-15.871-40.078-50.207-50.112-58.328c-2.543-2.06-5.612-3.069-8.664-3.069c-4.026,0-8.017,1.75-10.75,5.112
		c-2.31,2.854-3.379,6.448-2.991,10.121C145.267,118.655,147.052,121.948,149.914,124.267z"/>
	<path style="fill:#C59981;" d="M189.595,201.422c-21.19,0-49.233,2.414-58.328,4.517c-7.414,1.707-12.052,9.138-10.336,16.552
		c0.828,3.586,3,6.638,6.129,8.595c3.121,1.94,6.819,2.56,10.414,1.733c12.224-2.819,55.448-20.129,70.5-30.431
		C203.353,201.707,196.879,201.422,189.595,201.422z"/>
</g>
<path style="fill:#FFFFFF;" d="M428.138,189.793c0-94.914-77.224-172.138-172.138-172.138S83.862,94.879,83.862,189.793
	S161.086,361.931,256,361.931S428.138,284.707,428.138,189.793z M324.078,332.147c-4.422,2.155-9.112,3.181-13.733,3.181
	c-11.655,0-22.879-6.5-28.327-17.655c-0.431-0.879-37.638-90.491-14.621-101.715c0,0,0,0,0-0.009
	c23.095-11.164,70.733,73.276,71.164,74.147C346.155,305.69,339.655,324.552,324.078,332.147z M408.276,226.457
	c-1.888,8.19-6.854,15.147-13.983,19.603c-5.06,3.155-10.776,4.785-16.595,4.785c-2.379,0-4.776-0.276-7.155-0.819
	c-6.733-1.56-28.284-9.181-48.06-18.069c-31.405-14.112-42.664-23.802-40.181-34.578c2.483-10.776,16.785-14.517,51.276-13.474
	c21.672,0.681,44.388,3.276,51.121,4.828C401.595,192.638,412.172,209.56,408.276,226.457z M333.604,89.103
	c13.466-10.897,33.319-8.819,44.233,4.647c10.922,13.483,8.836,33.319-4.638,44.241c-0.655,0.526-57.81,41.371-84.828,41.371
	c-4.759,0-8.586-1.267-11-4.241c0-0.009,0-0.009,0-0.009C261.25,155.19,332.836,89.724,333.604,89.103z M256,35.31
	c17.345,0,31.448,14.103,31.448,31.448c0,0.974-5.819,97.828-31.448,97.828s-31.449-96.853-31.449-97.828
	C224.551,49.414,238.655,35.31,256,35.31z M134.155,93.759c10.931-13.474,30.767-15.552,44.241-4.655
	c5.379,4.362,21.405,20.655,35.285,37.31c22.035,26.448,27.914,40.104,20.948,48.707c-2.414,2.974-6.241,4.241-11,4.241
	c-27.017,0-84.172-40.845-84.819-41.371C125.328,127.069,123.241,107.233,134.155,93.759z M134.302,250.845
	c-5.819,0-11.535-1.629-16.595-4.785c-7.129-4.457-12.095-11.414-13.983-19.603c-3.896-16.896,6.681-33.819,23.578-37.724
	c6.733-1.552,29.448-4.147,51.121-4.828c34.414-1.017,48.793,2.698,51.276,13.474c2.483,10.776-8.776,20.465-40.181,34.578
	c-19.776,8.888-41.328,16.509-48.069,18.069C139.078,250.569,136.681,250.845,134.302,250.845z M229.991,317.672
	c-5.457,11.155-16.681,17.655-28.336,17.655c-4.621,0-9.302-1.017-13.733-3.172c-15.578-7.603-22.078-26.466-14.483-42.06
	c0.431-0.871,48.112-85.336,71.164-74.147c0,0.009,0,0.009,0,0.009C267.621,227.181,230.414,316.793,229.991,317.672z
	 M235.328,194.207c0-9.733,7.922-17.655,17.655-17.655c9.733,0,17.655,7.922,17.655,17.655s-7.922,17.655-17.655,17.655
	C243.25,211.862,235.328,203.94,235.328,194.207z"/>
<path style="fill:#C59981;" d="M189.319,297.836c-3.336,6.836-0.491,15.112,6.345,18.448c6.836,3.328,15.112,0.483,18.457-6.353
	c5.647-11.586,19.405-55.819,20.75-73.983C221.457,248.25,194.81,286.552,189.319,297.836z"/>
<g>
	<path style="fill:#314E55;" d="M277.371,175.112c0,0,0,0,0,0.009c2.414,2.974,6.241,4.241,11,4.241
		c27.017,0,84.172-40.845,84.828-41.371c13.474-10.922,15.56-30.759,4.638-44.241c-10.914-13.466-30.767-15.543-44.233-4.647
		C332.836,89.724,261.25,155.19,277.371,175.112z M344.707,102.828c2.552-2.06,5.621-3.069,8.672-3.069
		c4.026,0,8.017,1.75,10.741,5.112c2.319,2.854,3.388,6.448,3,10.121c-0.388,3.664-2.172,6.957-5.034,9.276
		c-10.035,8.121-50.112,31.526-67.474,36.888C303.457,145.284,334.681,110.948,344.707,102.828z"/>
	<path style="fill:#314E55;" d="M256,164.586c25.629,0,31.448-96.853,31.448-97.828c0-17.345-14.103-31.448-31.448-31.448
		s-31.449,14.103-31.449,31.448C224.551,67.733,230.371,164.586,256,164.586z M256,52.966c7.603,0,13.793,6.19,13.793,13.793
		c0,12.543-7.138,58.552-13.793,75.534c-6.655-16.983-13.793-62.991-13.793-75.534C242.207,59.155,248.397,52.966,256,52.966z"/>
	<path style="fill:#314E55;" d="M229.698,197.379c-2.483-10.776-16.862-14.491-51.276-13.474
		c-21.672,0.681-44.388,3.276-51.121,4.828c-16.896,3.905-27.474,20.828-23.577,37.724c1.888,8.19,6.854,15.147,13.983,19.603
		c5.06,3.155,10.776,4.785,16.595,4.785c2.379,0,4.776-0.276,7.147-0.819c6.741-1.56,28.293-9.181,48.069-18.069
		C220.922,217.845,232.181,208.155,229.698,197.379z M137.474,232.819c-3.595,0.828-7.293,0.207-10.414-1.733
		c-3.129-1.957-5.302-5.009-6.129-8.595c-1.715-7.414,2.922-14.845,10.336-16.552c9.095-2.103,37.138-4.517,58.328-4.517
		c7.285,0,13.759,0.284,18.379,0.966C192.922,212.69,149.698,230,137.474,232.819z"/>
	<path style="fill:#314E55;" d="M244.603,215.957c0,0,0,0,0-0.009c-23.052-11.19-70.733,73.276-71.164,74.147
		c-7.595,15.595-1.095,34.457,14.483,42.06c4.431,2.155,9.112,3.172,13.733,3.172c11.655,0,22.879-6.5,28.336-17.655
		C230.414,316.793,267.621,227.181,244.603,215.957z M214.121,309.931c-3.345,6.836-11.621,9.681-18.457,6.353
		c-6.836-3.336-9.681-11.612-6.345-18.448c5.491-11.285,32.138-49.586,45.552-61.888
		C233.526,254.112,219.767,298.345,214.121,309.931z"/>
	<path style="fill:#314E55;" d="M333.577,183.905c-34.491-1.043-48.793,2.698-51.276,13.474
		c-2.483,10.776,8.776,20.465,40.181,34.578c19.776,8.888,41.328,16.509,48.06,18.069c2.379,0.543,4.776,0.819,7.155,0.819
		c5.819,0,11.535-1.629,16.595-4.785c7.129-4.457,12.095-11.414,13.983-19.603c3.896-16.896-6.681-33.819-23.578-37.724
		C377.965,187.181,355.25,184.586,333.577,183.905z M391.069,222.491c-0.828,3.586-3,6.638-6.129,8.595
		c-3.121,1.94-6.836,2.56-10.423,1.733c-12.216-2.819-55.44-20.129-70.491-30.431c18.052-2.664,64.483,0.724,76.707,3.552
		C388.147,207.646,392.785,215.078,391.069,222.491z"/>
	<path style="fill:#314E55;" d="M138.81,137.991c0.647,0.526,57.802,41.371,84.819,41.371c4.758,0,8.586-1.267,11-4.241
		c6.965-8.603,1.086-22.259-20.948-48.707c-13.879-16.655-29.905-32.948-35.285-37.31c-13.474-10.897-33.31-8.819-44.241,4.655
		C123.241,107.233,125.328,127.069,138.81,137.991z M147.871,104.871c2.733-3.362,6.724-5.112,10.75-5.112
		c3.052,0,6.121,1.009,8.664,3.069c10.035,8.121,41.259,42.457,50.112,58.328c-17.362-5.362-57.448-28.767-67.483-36.888
		c-2.862-2.319-4.647-5.612-5.034-9.276C144.491,111.319,145.56,107.724,147.871,104.871z"/>
	<path style="fill:#314E55;" d="M267.397,215.948c0,0.009,0,0.009,0,0.009c-23.017,11.224,14.19,100.836,14.621,101.715
		c5.448,11.155,16.672,17.655,28.327,17.655c4.621,0,9.31-1.026,13.733-3.181c15.578-7.595,22.078-26.457,14.483-42.052
		C338.129,289.224,290.491,204.785,267.397,215.948z M316.336,316.276c-6.828,3.345-15.112,0.491-18.448-6.345
		c-5.655-11.586-19.414-55.819-20.759-73.983c13.414,12.302,40.06,50.603,45.552,61.888
		C326.017,304.672,323.172,312.948,316.336,316.276z"/>
	<path style="fill:#314E55;" d="M445.793,189.793C445.793,85.138,360.655,0,256,0S66.207,85.138,66.207,189.793
		c0,100.186,78.076,182.276,176.552,189.122v80.119h-70.621c-4.879,0-8.828,3.948-8.828,8.828v35.31
		c0,4.879,3.948,8.828,8.828,8.828h150.069c4.879,0,8.828-3.948,8.828-8.828v-35.31c0-4.879-3.948-8.828-8.828-8.828h-61.793
		v-79.672C363.018,376.986,445.793,292.958,445.793,189.793z M313.379,494.345H180.966V476.69h132.414V494.345z M83.862,189.793
		c0-94.914,77.224-172.138,172.138-172.138s172.138,77.224,172.138,172.138S350.914,361.931,256,361.931
		S83.862,284.707,83.862,189.793z"/>
	<path style="fill:#314E55;" d="M270.638,194.207c0-9.733-7.922-17.655-17.655-17.655c-9.733,0-17.655,7.922-17.655,17.655
		s7.922,17.655,17.655,17.655C262.716,211.862,270.638,203.94,270.638,194.207z"/>
</g>
<g>
</g>
<g>
</g>
<g>
</g>
<g>
</g>
<g>
</g>
<g>
</g>
<g>
</g>
<g>
</g>
<g>
</g>
<g>
</g>
<g>
</g>
<g>
</g>
<g>
</g>
<g>
</g>
<g>
</g>
</svg>
