<?xml version="1.0" encoding="iso-8859-1"?>
<!-- Generator: Adobe Illustrator 19.0.0, SVG Export Plug-In . SVG Version: 6.00 Build 0)  -->
<svg version="1.1" id="Layer_1" xmlns="http://www.w3.org/2000/svg" xmlns:xlink="http://www.w3.org/1999/xlink" x="0px" y="0px"
	 viewBox="0 0 512 512" style="enable-background:new 0 0 512 512;" xml:space="preserve">
<path style="fill:#FFCE76;" d="M196.266,286.808v45.814h-89.045v-21.235c-4.135-6.362-6.696-16.412-6.696-24.578
	c0-22.374,18.05-40.513,40.318-40.513c22.261,0,40.31,18.138,40.31,40.513h15.113V286.808z"/>
<path style="fill:#FFBB5E;" d="M196.266,286.808v45.814h-89.045V312.72c30.734-0.759,56.931-19.877,68.123-46.871
	c3.686,6.115,5.809,13.289,5.809,20.961h15.113V286.808z"/>
<path style="fill:#97BAA8;" d="M192.742,375.126H30.956v-43.8c0-13.993,11.335-24.624,25.188-23.624l137.34,9.189
	C194.456,316.961,192.742,375.126,192.742,375.126z"/>
<path style="fill:#A57541;" d="M481.042,356.767v97.867H30.956v-97.867H481.042z"/>
<path style="fill:#663310;" d="M512,454.63c0,5.56-4.484,10.066-10.017,10.066H10.017C4.484,464.696,0,460.189,0,454.63
	c0-5.56,4.484-10.066,10.017-10.066h491.965C507.516,444.562,512,449.069,512,454.63z"/>
<path style="fill:#B1D7C5;" d="M244.87,390.225c0,8.547-9.304,15.476-17.809,15.476h-45.906V286.808H445.52
	c19.537,0,35.522,16.063,35.522,35.696v67.719L244.87,390.225L244.87,390.225z"/>
<path style="fill:#78A097;" d="M481.042,322.505v83.194H227.061V286.808H445.52C465.061,286.808,481.042,302.871,481.042,322.505z"
	/>
<path style="fill:#CAEEC5;" d="M323.33,181.105c-24.635,24.755-61.644,29.487-91.014,14.199l-40.424,7.041l7.004-40.625
	c-15.208-29.512-10.503-66.706,14.13-91.46c30.46-30.609,79.842-30.609,110.301,0C353.79,100.869,353.79,150.496,323.33,181.105z"/>
<path style="fill:#5B7F81;" d="M297.297,146.341c0,5.561-4.484,10.066-10.017,10.066h-38.195c-3.985,0-7.59-2.373-9.183-6.044
	c-1.593-3.671-0.868-7.942,1.843-10.876L264.3,115.09h-15.215c-5.533,0-10.017-4.507-10.017-10.066
	c0-5.56,4.484-10.066,10.017-10.066h38.195c3.985,0,7.59,2.373,9.183,6.044c1.593,3.671,0.868,7.942-1.843,10.874l-22.555,24.398
	h15.215C292.812,136.275,297.297,140.782,297.297,146.341z"/>
<g>
</g>
<g>
</g>
<g>
</g>
<g>
</g>
<g>
</g>
<g>
</g>
<g>
</g>
<g>
</g>
<g>
</g>
<g>
</g>
<g>
</g>
<g>
</g>
<g>
</g>
<g>
</g>
<g>
</g>
</svg>
